<svg width="16" height="16" viewBox="0 0 16 16" fill="none" xmlns="http://www.w3.org/2000/svg">
<path d="M2.81473 14.6666C2.40733 14.6666 2.05844 14.5217 1.76807 14.2318C1.47819 13.9415 1.33325 13.5926 1.33325 13.1852V2.81479C1.33325 2.40739 1.47819 2.0585 1.76807 1.76813C2.05844 1.47825 2.40733 1.33331 2.81473 1.33331H13.1851C13.5925 1.33331 13.9414 1.47825 14.2318 1.76813C14.5216 2.0585 14.6666 2.40739 14.6666 2.81479V13.1852C14.6666 13.5926 14.5216 13.9415 14.2318 14.2318C13.9414 14.5217 13.5925 14.6666 13.1851 14.6666H2.81473ZM6.96288 10.7963C7.06165 10.7963 7.15424 10.781 7.24066 10.7503C7.32708 10.7192 7.40733 10.6666 7.4814 10.5926L11.6851 6.38887C11.8209 6.25307 11.8888 6.0864 11.8888 5.88887C11.8888 5.69134 11.8147 5.5185 11.6666 5.37035C11.5308 5.23455 11.3579 5.16665 11.1481 5.16665C10.9382 5.16665 10.7654 5.23455 10.6295 5.37035L6.96288 9.03702L5.35177 7.42591C5.21597 7.2901 5.0493 7.2222 4.85177 7.2222C4.65424 7.2222 4.4814 7.29628 4.33325 7.44442C4.19745 7.58023 4.12955 7.75307 4.12955 7.96294C4.12955 8.17282 4.19745 8.34566 4.33325 8.48146L6.44436 10.5926C6.51844 10.6666 6.59868 10.7192 6.6851 10.7503C6.77152 10.781 6.86412 10.7963 6.96288 10.7963Z" fill="#029664"/>
</svg>
